<svg xmlns="http://www.w3.org/2000/svg" viewBox="0 0 310.67 310.67"><defs><style>.cls-1{fill:#0052ff;}.cls-2{fill:#f2f2f2;}.cls-3{fill:#999;}.cls-4{fill:#fff;}.cls-5{fill:#22b573;}.cls-6{fill:#ed1c24;}</style></defs><g id="Calque_2" data-name="Calque 2"><g id="Calque_1-2" data-name="Calque 1"><circle class="cls-1" cx="155.33" cy="155.33" r="155.33"/><circle class="cls-2" cx="52.32" cy="171.52" r="15.89"/><rect class="cls-2" x="82.87" y="112.04" width="15.39" height="89.83" transform="translate(205.02 16.46) rotate(69.15)"/><rect class="cls-3" x="155.04" y="116.48" width="15.39" height="80.28" transform="translate(371.46 70.32) rotate(113.63)"/><rect class="cls-2" x="209.62" y="106.02" width="15.39" height="79.17" transform="translate(282.51 398.94) rotate(-138.25)"/><path class="cls-4" d="M133.62,231.49a67,67,0,0,1-17.7-7.65,75.71,75.71,0,0,1-15.46-12.73l15-18.14a53.7,53.7,0,0,0,17.42,14.26A46.11,46.11,0,0,0,153.67,212q15.51,0,23.16-6.07t7.65-18.41v-.11q0-7.86-3.71-12.45a22.74,22.74,0,0,0-9.62-6.89,88.18,88.18,0,0,0-15.08-4,2,2,0,0,0-.6-.11,1.74,1.74,0,0,1-.6-.11l-1.15-.22-1.15-.22a147.44,147.44,0,0,1-23.71-6.11A33.65,33.65,0,0,1,113.35,145q-6.45-8.89-6.45-25.29v-.11q0-15.94,5.79-26.5A36.59,36.59,0,0,1,130,77.21q11.53-5.29,28.9-5.3a72.69,72.69,0,0,1,15.14,1.59,75.77,75.77,0,0,1,14.8,4.8,96.55,96.55,0,0,1,14.53,8L189.94,104.8a68.91,68.91,0,0,0-15.79-8.14A46.29,46.29,0,0,0,158.91,94q-14.41,0-21.63,6t-7.21,17.86v.11q0,8.19,4.15,12.84a24.5,24.5,0,0,0,10.43,6.83,157.52,157.52,0,0,0,17.21,4.59l.88.22,1,.21,1,.22c.33.08.67.15,1,.22A103.82,103.82,0,0,1,187.38,150a34.66,34.66,0,0,1,14.47,13.17q5.79,9.06,5.79,24.69v.22q0,15.41-6,25.62a36.76,36.76,0,0,1-18,15.3q-12,5.07-30,5.08A76.23,76.23,0,0,1,133.62,231.49Zm11-177.28h22.29V79.12H144.6Zm0,171.22h22.29v26.33H144.6Z"/><path class="cls-2" d="M225.47,101.62c15.07-15.07,39.14-9.36,39.14-9.36s5.73,30.05-4.58,40.36"/><circle class="cls-5" cx="124.7" cy="142.41" r="18.62"/><circle class="cls-6" cx="193.64" cy="170.14" r="17.78"/></g></g></svg>